<svg xmlns="http://www.w3.org/2000/svg" width="805" height="600"><rect width="805" height="600" x="0" y="0" fill="#f5a623" id="background"/><g id="viz"><g transform="translate(0,0)"><g transform="translate(35,25)"><g class="bars"><rect id="undefined - SHOT_MADE_FLAG" x="6.434404283801882" y="23.843749999999975" height="521.15625" width="14.428528930536961" fill="#d0021b"/><rect id="undefined - SHOT_MADE_FLAG" x="576.5965342852893" y="538.1875" height="6.8125" width="14.428528930536961" fill="#d0021b"/><rect id="undefined - SHOT_MADE_FLAG" x="26.797337498140717" y="265.6875" height="279.3125" width="14.428528930536961" fill="#d0021b"/><rect id="undefined - SHOT_MADE_FLAG" x="47.16027071247955" y="279.3125" height="265.6875" width="14.428528930536961" fill="#d0021b"/><rect id="undefined - SHOT_MADE_FLAG" x="495.1448014279339" y="534.78125" height="10.21875" width="14.428528930536961" fill="#d0021b"/><rect id="undefined - SHOT_MADE_FLAG" x="87.88613714115722" y="449.625" height="95.375" width="14.428528930536961" fill="#d0021b"/><rect id="undefined - SHOT_MADE_FLAG" x="128.61200356983488" y="490.5" height="54.5" width="14.428528930536961" fill="#d0021b"/><rect id="undefined - SHOT_MADE_FLAG" x="169.33786999851256" y="500.71875" height="44.28125" width="14.428528930536961" fill="#d0021b"/><rect id="undefined - SHOT_MADE_FLAG" x="67.52320392681838" y="442.8125" height="102.1875" width="14.428528930536961" fill="#d0021b"/><rect id="undefined - SHOT_MADE_FLAG" x="210.06373642719024" y="510.9375" height="34.0625" width="14.428528930536961" fill="#d0021b"/><rect id="undefined - SHOT_MADE_FLAG" x="148.97493678417374" y="493.90625" height="51.09375" width="14.428528930536961" fill="#d0021b"/><rect id="undefined - SHOT_MADE_FLAG" x="515.5077346422727" y="534.78125" height="10.21875" width="14.428528930536961" fill="#d0021b"/><rect id="undefined - SHOT_MADE_FLAG" x="108.24907035549606" y="470.0625" height="74.9375" width="14.428528930536961" fill="#d0021b"/><rect id="undefined - SHOT_MADE_FLAG" x="413.6930685705786" y="531.375" height="13.625" width="14.428528930536961" fill="#d0021b"/><rect id="undefined - SHOT_MADE_FLAG" x="189.70080321285138" y="504.125" height="40.875" width="14.428528930536961" fill="#d0021b"/><rect id="undefined - SHOT_MADE_FLAG" x="617.3224007139669" y="541.59375" height="3.40625" width="14.428528930536961" fill="#d0021b"/><rect id="undefined - SHOT_MADE_FLAG" x="291.5154692845456" y="521.15625" height="23.84375" width="14.428528930536961" fill="#d0021b"/><rect id="undefined - SHOT_MADE_FLAG" x="372.9672021419009" y="527.96875" height="17.03125" width="14.428528930536961" fill="#d0021b"/><rect id="undefined - SHOT_MADE_FLAG" x="393.33013535623974" y="527.96875" height="17.03125" width="14.428528930536961" fill="#d0021b"/><rect id="undefined - SHOT_MADE_FLAG" x="637.6853339283058" y="541.59375" height="3.40625" width="14.428528930536961" fill="#d0021b"/><rect id="undefined - SHOT_MADE_FLAG" x="596.9594674996281" y="538.1875" height="6.8125" width="14.428528930536961" fill="#d0021b"/><rect id="undefined - SHOT_MADE_FLAG" x="332.24133571322324" y="524.5625" height="20.4375" width="14.428528930536961" fill="#d0021b"/><rect id="undefined - SHOT_MADE_FLAG" x="434.0560017849174" y="531.375" height="13.625" width="14.428528930536961" fill="#d0021b"/><rect id="undefined - SHOT_MADE_FLAG" x="454.41893499925624" y="531.375" height="13.625" width="14.428528930536961" fill="#d0021b"/><rect id="undefined - SHOT_MADE_FLAG" x="230.42666964152906" y="514.34375" height="30.65625" width="14.428528930536961" fill="#d0021b"/><rect id="undefined - SHOT_MADE_FLAG" x="535.8706678566116" y="534.78125" height="10.21875" width="14.428528930536961" fill="#d0021b"/><rect id="undefined - SHOT_MADE_FLAG" x="474.7818682135951" y="531.375" height="13.625" width="14.428528930536961" fill="#d0021b"/><rect id="undefined - SHOT_MADE_FLAG" x="250.78960285586788" y="514.34375" height="30.65625" width="14.428528930536961" fill="#d0021b"/><rect id="undefined - SHOT_MADE_FLAG" x="352.6042689275621" y="524.5625" height="20.4375" width="14.428528930536961" fill="#d0021b"/><rect id="undefined - SHOT_MADE_FLAG" x="556.2336010709504" y="534.78125" height="10.21875" width="14.428528930536961" fill="#d0021b"/><rect id="undefined - SHOT_MADE_FLAG" x="311.8784024988844" y="521.15625" height="23.84375" width="14.428528930536961" fill="#d0021b"/><rect id="undefined - SHOT_MADE_FLAG" x="698.7741335713223" y="545" height="0" width="14.428528930536961" fill="#d0021b"/><rect id="undefined - SHOT_MADE_FLAG" x="271.15253607020674" y="514.34375" height="30.65625" width="14.428528930536961" fill="#d0021b"/><rect id="undefined - SHOT_MADE_FLAG" x="719.1370667856611" y="545" height="0" width="14.428528930536961" fill="#d0021b"/><rect id="undefined - SHOT_MADE_FLAG" x="658.0482671426446" y="541.59375" height="3.40625" width="14.428528930536961" fill="#d0021b"/><rect id="undefined - SHOT_MADE_FLAG" x="678.4112003569834" y="541.59375" height="3.40625" width="14.428528930536961" fill="#d0021b"/></g><g id="xAxis" transform="translate(0,545)" fill="none" font-size="10" font-family="sans-serif" text-anchor="middle"><path class="domain" stroke="currentColor" d="M0,0H740"/><g class="tick" opacity="1" transform="translate(13.648668749070364,0)"><line stroke="currentColor" y2="6"/><text fill="currentColor" y="9" dy="0.71em">1</text></g><g class="tick" opacity="1" transform="translate(34.0116019634092,0)"><line stroke="currentColor" y2="6"/><text fill="currentColor" y="9" dy="0.71em">0</text></g><g class="tick" opacity="1" transform="translate(54.37453517774803,0)"><line stroke="currentColor" y2="6"/><text fill="currentColor" y="9" dy="0.71em">2</text></g><g class="tick" opacity="1" transform="translate(74.73746839208687,0)"><line stroke="currentColor" y2="6"/><text fill="currentColor" y="9" dy="0.71em">26</text></g><g class="tick" opacity="1" transform="translate(95.1004016064257,0)"><line stroke="currentColor" y2="6"/><text fill="currentColor" y="9" dy="0.71em">25</text></g><g class="tick" opacity="1" transform="translate(115.46333482076454,0)"><line stroke="currentColor" y2="6"/><text fill="currentColor" y="9" dy="0.71em">3</text></g><g class="tick" opacity="1" transform="translate(135.82626803510337,0)"><line stroke="currentColor" y2="6"/><text fill="currentColor" y="9" dy="0.71em">27</text></g><g class="tick" opacity="1" transform="translate(156.18920124944222,0)"><line stroke="currentColor" y2="6"/><text fill="currentColor" y="9" dy="0.71em">24</text></g><g class="tick" opacity="1" transform="translate(176.55213446378104,0)"><line stroke="currentColor" y2="6"/><text fill="currentColor" y="9" dy="0.71em">17</text></g><g class="tick" opacity="1" transform="translate(196.91506767811987,0)"><line stroke="currentColor" y2="6"/><text fill="currentColor" y="9" dy="0.71em">21</text></g><g class="tick" opacity="1" transform="translate(217.27800089245872,0)"><line stroke="currentColor" y2="6"/><text fill="currentColor" y="9" dy="0.71em">18</text></g><g class="tick" opacity="1" transform="translate(237.64093410679754,0)"><line stroke="currentColor" y2="6"/><text fill="currentColor" y="9" dy="0.71em">10</text></g><g class="tick" opacity="1" transform="translate(258.00386732113634,0)"><line stroke="currentColor" y2="6"/><text fill="currentColor" y="9" dy="0.71em">12</text></g><g class="tick" opacity="1" transform="translate(278.3668005354752,0)"><line stroke="currentColor" y2="6"/><text fill="currentColor" y="9" dy="0.71em">20</text></g><g class="tick" opacity="1" transform="translate(298.72973374981405,0)"><line stroke="currentColor" y2="6"/><text fill="currentColor" y="9" dy="0.71em">11</text></g><g class="tick" opacity="1" transform="translate(319.09266696415284,0)"><line stroke="currentColor" y2="6"/><text fill="currentColor" y="9" dy="0.71em">28</text></g><g class="tick" opacity="1" transform="translate(339.4556001784917,0)"><line stroke="currentColor" y2="6"/><text fill="currentColor" y="9" dy="0.71em">9</text></g><g class="tick" opacity="1" transform="translate(359.81853339283055,0)"><line stroke="currentColor" y2="6"/><text fill="currentColor" y="9" dy="0.71em">23</text></g><g class="tick" opacity="1" transform="translate(380.18146660716934,0)"><line stroke="currentColor" y2="6"/><text fill="currentColor" y="9" dy="0.71em">22</text></g><g class="tick" opacity="1" transform="translate(400.5443998215082,0)"><line stroke="currentColor" y2="6"/><text fill="currentColor" y="9" dy="0.71em">14</text></g><g class="tick" opacity="1" transform="translate(420.90733303584705,0)"><line stroke="currentColor" y2="6"/><text fill="currentColor" y="9" dy="0.71em">4</text></g><g class="tick" opacity="1" transform="translate(441.27026625018584,0)"><line stroke="currentColor" y2="6"/><text fill="currentColor" y="9" dy="0.71em">16</text></g><g class="tick" opacity="1" transform="translate(461.6331994645247,0)"><line stroke="currentColor" y2="6"/><text fill="currentColor" y="9" dy="0.71em">13</text></g><g class="tick" opacity="1" transform="translate(481.99613267886355,0)"><line stroke="currentColor" y2="6"/><text fill="currentColor" y="9" dy="0.71em">7</text></g><g class="tick" opacity="1" transform="translate(502.35906589320234,0)"><line stroke="currentColor" y2="6"/><text fill="currentColor" y="9" dy="0.71em">8</text></g><g class="tick" opacity="1" transform="translate(522.7219991075411,0)"><line stroke="currentColor" y2="6"/><text fill="currentColor" y="9" dy="0.71em">5</text></g><g class="tick" opacity="1" transform="translate(543.08493232188,0)"><line stroke="currentColor" y2="6"/><text fill="currentColor" y="9" dy="0.71em">19</text></g><g class="tick" opacity="1" transform="translate(563.4478655362188,0)"><line stroke="currentColor" y2="6"/><text fill="currentColor" y="9" dy="0.71em">29</text></g><g class="tick" opacity="1" transform="translate(583.8107987505578,0)"><line stroke="currentColor" y2="6"/><text fill="currentColor" y="9" dy="0.71em">6</text></g><g class="tick" opacity="1" transform="translate(604.1737319648965,0)"><line stroke="currentColor" y2="6"/><text fill="currentColor" y="9" dy="0.71em">30</text></g><g class="tick" opacity="1" transform="translate(624.5366651792353,0)"><line stroke="currentColor" y2="6"/><text fill="currentColor" y="9" dy="0.71em">15</text></g><g class="tick" opacity="1" transform="translate(644.8995983935743,0)"><line stroke="currentColor" y2="6"/><text fill="currentColor" y="9" dy="0.71em">32</text></g><g class="tick" opacity="1" transform="translate(665.262531607913,0)"><line stroke="currentColor" y2="6"/><text fill="currentColor" y="9" dy="0.71em">35</text></g><g class="tick" opacity="1" transform="translate(685.6254648222518,0)"><line stroke="currentColor" y2="6"/><text fill="currentColor" y="9" dy="0.71em">31</text></g><g class="tick" opacity="1" transform="translate(705.9883980365908,0)"><line stroke="currentColor" y2="6"/><text fill="currentColor" y="9" dy="0.71em">34</text></g><g class="tick" opacity="1" transform="translate(726.3513312509295,0)"><line stroke="currentColor" y2="6"/><text fill="currentColor" y="9" dy="0.71em">33</text></g></g><g id="yAxis" fill="none" font-size="10" font-family="sans-serif" text-anchor="end"><path class="domain" stroke="currentColor" d="M0,545V0"/><g class="tick" opacity="1" transform="translate(0,545)"><line stroke="currentColor" x2="-6"/><text fill="currentColor" x="-9" dy="0.32em">0</text></g><g class="tick" opacity="1" transform="translate(0,476.875)"><line stroke="currentColor" x2="-6"/><text fill="currentColor" x="-9" dy="0.32em">20</text></g><g class="tick" opacity="1" transform="translate(0,408.75)"><line stroke="currentColor" x2="-6"/><text fill="currentColor" x="-9" dy="0.32em">40</text></g><g class="tick" opacity="1" transform="translate(0,340.625)"><line stroke="currentColor" x2="-6"/><text fill="currentColor" x="-9" dy="0.32em">60</text></g><g class="tick" opacity="1" transform="translate(0,272.5)"><line stroke="currentColor" x2="-6"/><text fill="currentColor" x="-9" dy="0.32em">80</text></g><g class="tick" opacity="1" transform="translate(0,204.375)"><line stroke="currentColor" x2="-6"/><text fill="currentColor" x="-9" dy="0.32em">100</text></g><g class="tick" opacity="1" transform="translate(0,136.25)"><line stroke="currentColor" x2="-6"/><text fill="currentColor" x="-9" dy="0.32em">120</text></g><g class="tick" opacity="1" transform="translate(0,68.125)"><line stroke="currentColor" x2="-6"/><text fill="currentColor" x="-9" dy="0.32em">140</text></g><g class="tick" opacity="1" transform="translate(0,0)"><line stroke="currentColor" x2="-6"/><text fill="currentColor" x="-9" dy="0.32em">160</text></g></g><text y="541" x="740" text-anchor="end" style="font-family: Arial, sans-serif; font-size: 12px; fill: rgb(123, 123, 123); font-weight: bold;">Sets</text><text y="0" x="4" dominant-baseline="hanging" text-anchor="start" style="font-family: Arial, sans-serif; font-size: 12px; fill: rgb(123, 123, 123); font-weight: bold;">Value</text></g><text x="4" y="4" style="font-family: Arial, sans-serif; font-size: 12px; fill: black; font-weight: bold; dominant-baseline: hanging;"/></g><g id="grid"><rect x="0" y="0" width="805" height="600" fill="none" stroke="#ccc"/></g></g></svg>