<svg xmlns="http://www.w3.org/2000/svg" width="805" height="600"><rect width="805" height="600" x="0" y="0" fill="#FFFFFF" id="background"/><g id="viz"><g transform="translate(0,0)"><g transform="translate(50,20)"><g class="bars"><rect id="undefined - 1" x="21.66536341971995" y="24.499999999999975" height="535.5" width="19.668044384867443" fill="#d0021b"/><rect id="undefined - 6" x="124.99888293118852" y="553" height="7" width="19.668044384867443" fill="#d0021b"/><rect id="undefined - 0" x="0.9986595174262334" y="273" height="287" width="19.668044384867443" fill="#d0021b"/><rect id="undefined - 2" x="42.332067322013664" y="287" height="273" width="19.668044384867443" fill="#d0021b"/><rect id="undefined - 8" x="166.33229073577596" y="549.5" height="10.5" width="19.668044384867443" fill="#d0021b"/><rect id="undefined - 25" x="517.6662570747692" y="462" height="98" width="19.668044384867443" fill="#d0021b"/><rect id="undefined - 27" x="558.9996648793565" y="504" height="56" width="19.668044384867443" fill="#d0021b"/><rect id="undefined - 17" x="352.3326258564194" y="514.5" height="45.5" width="19.668044384867443" fill="#d0021b"/><rect id="undefined - 26" x="538.3329609770628" y="455" height="105" width="19.668044384867443" fill="#d0021b"/><rect id="undefined - 18" x="372.9993297587131" y="525" height="35" width="19.668044384867443" fill="#d0021b"/><rect id="undefined - 24" x="496.9995531724754" y="507.5" height="52.5" width="19.668044384867443" fill="#d0021b"/><rect id="undefined - 5" x="104.33217902889481" y="549.5" height="10.5" width="19.668044384867443" fill="#d0021b"/><rect id="undefined - 3" x="62.998771224307376" y="483" height="77" width="19.668044384867443" fill="#d0021b"/><rect id="undefined - 4" x="83.6654751266011" y="546" height="14" width="19.668044384867443" fill="#d0021b"/><rect id="undefined - 21" x="434.99944146559426" y="518" height="42" width="19.668044384867443" fill="#d0021b"/><rect id="undefined - 15" x="310.999218051832" y="556.5" height="3.5" width="19.668044384867443" fill="#d0021b"/><rect id="undefined - 11" x="228.3324024426571" y="535.5" height="24.5" width="19.668044384867443" fill="#d0021b"/><rect id="undefined - 22" x="455.66614536788796" y="542.5" height="17.5" width="19.668044384867443" fill="#d0021b"/><rect id="undefined - 14" x="290.33251414953827" y="542.5" height="17.5" width="19.668044384867443" fill="#d0021b"/><rect id="undefined - 32" x="662.3331843908252" y="556.5" height="3.5" width="19.668044384867443" fill="#d0021b"/><rect id="undefined - 30" x="620.9997765862377" y="553" height="7" width="19.668044384867443" fill="#d0021b"/><rect id="undefined - 9" x="186.99899463806966" y="539" height="21" width="19.668044384867443" fill="#d0021b"/><rect id="undefined - 16" x="331.6659219541257" y="546" height="14" width="19.668044384867443" fill="#d0021b"/><rect id="undefined - 13" x="269.6658102472445" y="546" height="14" width="19.668044384867443" fill="#d0021b"/><rect id="undefined - 10" x="207.6656985403634" y="528.5" height="31.5" width="19.668044384867443" fill="#d0021b"/><rect id="undefined - 19" x="393.66603366100685" y="549.5" height="10.5" width="19.668044384867443" fill="#d0021b"/><rect id="undefined - 7" x="145.66558683348225" y="546" height="14" width="19.668044384867443" fill="#d0021b"/><rect id="undefined - 12" x="248.9991063449508" y="528.5" height="31.5" width="19.668044384867443" fill="#d0021b"/><rect id="undefined - 23" x="476.33284927018167" y="539" height="21" width="19.668044384867443" fill="#d0021b"/><rect id="undefined - 29" x="600.333072683944" y="549.5" height="10.5" width="19.668044384867443" fill="#d0021b"/><rect id="undefined - 28" x="579.6663687816504" y="535.5" height="24.5" width="19.668044384867443" fill="#d0021b"/><rect id="undefined - 34" x="703.6665921954125" y="560" height="0" width="19.668044384867443" fill="#d0021b"/><rect id="undefined - 20" x="414.33273756330055" y="528.5" height="31.5" width="19.668044384867443" fill="#d0021b"/><rect id="undefined - 33" x="682.9998882931188" y="560" height="0" width="19.668044384867443" fill="#d0021b"/><rect id="undefined - 35" x="724.3332960977064" y="556.5" height="3.5" width="19.668044384867443" fill="#d0021b"/><rect id="undefined - 31" x="641.6664804885313" y="556.5" height="3.5" width="19.668044384867443" fill="#d0021b"/></g><g id="xAxis" transform="translate(0,560)" fill="none" font-size="10" font-family="sans-serif" text-anchor="middle"><path class="domain" stroke="currentColor" d="M0,0H745"/><g class="tick" opacity="1" transform="translate(10.832681709859955,0)"><line stroke="currentColor" y2="6"/><text fill="currentColor" y="9" dy="0.71em">0</text></g><g class="tick" opacity="1" transform="translate(31.49938561215367,0)"><line stroke="currentColor" y2="6"/><text fill="currentColor" y="9" dy="0.71em">1</text></g><g class="tick" opacity="1" transform="translate(52.166089514447386,0)"><line stroke="currentColor" y2="6"/><text fill="currentColor" y="9" dy="0.71em">2</text></g><g class="tick" opacity="1" transform="translate(72.8327934167411,0)"><line stroke="currentColor" y2="6"/><text fill="currentColor" y="9" dy="0.71em">3</text></g><g class="tick" opacity="1" transform="translate(93.49949731903482,0)"><line stroke="currentColor" y2="6"/><text fill="currentColor" y="9" dy="0.71em">4</text></g><g class="tick" opacity="1" transform="translate(114.16620122132854,0)"><line stroke="currentColor" y2="6"/><text fill="currentColor" y="9" dy="0.71em">5</text></g><g class="tick" opacity="1" transform="translate(134.83290512362225,0)"><line stroke="currentColor" y2="6"/><text fill="currentColor" y="9" dy="0.71em">6</text></g><g class="tick" opacity="1" transform="translate(155.49960902591596,0)"><line stroke="currentColor" y2="6"/><text fill="currentColor" y="9" dy="0.71em">7</text></g><g class="tick" opacity="1" transform="translate(176.16631292820966,0)"><line stroke="currentColor" y2="6"/><text fill="currentColor" y="9" dy="0.71em">8</text></g><g class="tick" opacity="1" transform="translate(196.83301683050337,0)"><line stroke="currentColor" y2="6"/><text fill="currentColor" y="9" dy="0.71em">9</text></g><g class="tick" opacity="1" transform="translate(217.49972073279713,0)"><line stroke="currentColor" y2="6"/><text fill="currentColor" y="9" dy="0.71em">10</text></g><g class="tick" opacity="1" transform="translate(238.16642463509083,0)"><line stroke="currentColor" y2="6"/><text fill="currentColor" y="9" dy="0.71em">11</text></g><g class="tick" opacity="1" transform="translate(258.83312853738454,0)"><line stroke="currentColor" y2="6"/><text fill="currentColor" y="9" dy="0.71em">12</text></g><g class="tick" opacity="1" transform="translate(279.49983243967824,0)"><line stroke="currentColor" y2="6"/><text fill="currentColor" y="9" dy="0.71em">13</text></g><g class="tick" opacity="1" transform="translate(300.166536341972,0)"><line stroke="currentColor" y2="6"/><text fill="currentColor" y="9" dy="0.71em">14</text></g><g class="tick" opacity="1" transform="translate(320.8332402442657,0)"><line stroke="currentColor" y2="6"/><text fill="currentColor" y="9" dy="0.71em">15</text></g><g class="tick" opacity="1" transform="translate(341.4999441465594,0)"><line stroke="currentColor" y2="6"/><text fill="currentColor" y="9" dy="0.71em">16</text></g><g class="tick" opacity="1" transform="translate(362.1666480488531,0)"><line stroke="currentColor" y2="6"/><text fill="currentColor" y="9" dy="0.71em">17</text></g><g class="tick" opacity="1" transform="translate(382.8333519511468,0)"><line stroke="currentColor" y2="6"/><text fill="currentColor" y="9" dy="0.71em">18</text></g><g class="tick" opacity="1" transform="translate(403.5000558534406,0)"><line stroke="currentColor" y2="6"/><text fill="currentColor" y="9" dy="0.71em">19</text></g><g class="tick" opacity="1" transform="translate(424.1667597557343,0)"><line stroke="currentColor" y2="6"/><text fill="currentColor" y="9" dy="0.71em">20</text></g><g class="tick" opacity="1" transform="translate(444.833463658028,0)"><line stroke="currentColor" y2="6"/><text fill="currentColor" y="9" dy="0.71em">21</text></g><g class="tick" opacity="1" transform="translate(465.5001675603217,0)"><line stroke="currentColor" y2="6"/><text fill="currentColor" y="9" dy="0.71em">22</text></g><g class="tick" opacity="1" transform="translate(486.1668714626154,0)"><line stroke="currentColor" y2="6"/><text fill="currentColor" y="9" dy="0.71em">23</text></g><g class="tick" opacity="1" transform="translate(506.8335753649091,0)"><line stroke="currentColor" y2="6"/><text fill="currentColor" y="9" dy="0.71em">24</text></g><g class="tick" opacity="1" transform="translate(527.5002792672029,0)"><line stroke="currentColor" y2="6"/><text fill="currentColor" y="9" dy="0.71em">25</text></g><g class="tick" opacity="1" transform="translate(548.1669831694966,0)"><line stroke="currentColor" y2="6"/><text fill="currentColor" y="9" dy="0.71em">26</text></g><g class="tick" opacity="1" transform="translate(568.8336870717902,0)"><line stroke="currentColor" y2="6"/><text fill="currentColor" y="9" dy="0.71em">27</text></g><g class="tick" opacity="1" transform="translate(589.5003909740841,0)"><line stroke="currentColor" y2="6"/><text fill="currentColor" y="9" dy="0.71em">28</text></g><g class="tick" opacity="1" transform="translate(610.1670948763777,0)"><line stroke="currentColor" y2="6"/><text fill="currentColor" y="9" dy="0.71em">29</text></g><g class="tick" opacity="1" transform="translate(630.8337987786714,0)"><line stroke="currentColor" y2="6"/><text fill="currentColor" y="9" dy="0.71em">30</text></g><g class="tick" opacity="1" transform="translate(651.500502680965,0)"><line stroke="currentColor" y2="6"/><text fill="currentColor" y="9" dy="0.71em">31</text></g><g class="tick" opacity="1" transform="translate(672.1672065832589,0)"><line stroke="currentColor" y2="6"/><text fill="currentColor" y="9" dy="0.71em">32</text></g><g class="tick" opacity="1" transform="translate(692.8339104855526,0)"><line stroke="currentColor" y2="6"/><text fill="currentColor" y="9" dy="0.71em">33</text></g><g class="tick" opacity="1" transform="translate(713.5006143878462,0)"><line stroke="currentColor" y2="6"/><text fill="currentColor" y="9" dy="0.71em">34</text></g><g class="tick" opacity="1" transform="translate(734.1673182901401,0)"><line stroke="currentColor" y2="6"/><text fill="currentColor" y="9" dy="0.71em">35</text></g><text x="745" y="-4" text-anchor="end" style="font-family: Arial, sans-serif; font-size: 12px; fill: rgb(123, 123, 123); font-weight: bold;">Shot distance</text></g><g id="yAxis" fill="none" font-size="10" font-family="sans-serif" text-anchor="end"><path class="domain" stroke="currentColor" d="M-6,560H0V0H-6"/><g class="tick" opacity="1" transform="translate(0,560)"><line stroke="currentColor" x2="-6"/><text fill="currentColor" x="-9" dy="0.32em">0</text></g><g class="tick" opacity="1" transform="translate(0,490)"><line stroke="currentColor" x2="-6"/><text fill="currentColor" x="-9" dy="0.32em">20</text></g><g class="tick" opacity="1" transform="translate(0,420)"><line stroke="currentColor" x2="-6"/><text fill="currentColor" x="-9" dy="0.32em">40</text></g><g class="tick" opacity="1" transform="translate(0,350)"><line stroke="currentColor" x2="-6"/><text fill="currentColor" x="-9" dy="0.32em">60</text></g><g class="tick" opacity="1" transform="translate(0,280)"><line stroke="currentColor" x2="-6"/><text fill="currentColor" x="-9" dy="0.32em">80</text></g><g class="tick" opacity="1" transform="translate(0,210)"><line stroke="currentColor" x2="-6"/><text fill="currentColor" x="-9" dy="0.32em">100</text></g><g class="tick" opacity="1" transform="translate(0,140)"><line stroke="currentColor" x2="-6"/><text fill="currentColor" x="-9" dy="0.32em">120</text></g><g class="tick" opacity="1" transform="translate(0,70)"><line stroke="currentColor" x2="-6"/><text fill="currentColor" x="-9" dy="0.32em">140</text></g><g class="tick" opacity="1" transform="translate(0,0)"><line stroke="currentColor" x2="-6"/><text fill="currentColor" x="-9" dy="0.32em">160</text></g><text x="4" text-anchor="start" dominant-baseline="hanging" style="font-family: Arial, sans-serif; font-size: 12px; fill: rgb(123, 123, 123); font-weight: bold;">SHOT_MADE_FLAG [sum]</text></g></g><text y="4" x="4" style="font-family: Arial, sans-serif; font-size: 12px; fill: black; font-weight: bold; dominant-baseline: hanging;"/></g></g></svg>
