<svg xmlns="http://www.w3.org/2000/svg" width="805" height="600"><rect width="805" height="600" x="0" y="0" fill="#FFFFFF" id="background"/><g transform="translate(20,5)" id="viz"><g id="links"><path d="M0,336.08254248305576C122.5,336.08254248305576,122.5,136.95519122982068,245,136.95519122982068" fill="none" stroke="#ccc"/><path d="M0,336.08254248305576C122.5,336.08254248305576,122.5,330.69650458350964,245,330.69650458350964" fill="none" stroke="#ccc"/><path d="M0,336.08254248305576C122.5,336.08254248305576,122.5,427.2517585236884,245,427.2517585236884" fill="none" stroke="#ccc"/><path d="M0,336.08254248305576C122.5,336.08254248305576,122.5,535.2098937362908,245,535.2098937362908" fill="none" stroke="#ccc"/><path d="M245,136.95519122982068C367.5,136.95519122982068,367.5,24.98181464809255,490,24.98181464809255" fill="none" stroke="#ccc"/><path d="M245,136.95519122982068C367.5,136.95519122982068,367.5,64.9527180850406,490,64.9527180850406" fill="none" stroke="#ccc"/><path d="M245,136.95519122982068C367.5,136.95519122982068,367.5,91.47457683072388,490,91.47457683072388" fill="none" stroke="#ccc"/><path d="M245,136.95519122982068C367.5,136.95519122982068,367.5,106.97701365210963,490,106.97701365210963" fill="none" stroke="#ccc"/><path d="M245,136.95519122982068C367.5,136.95519122982068,367.5,117.99643557640714,490,117.99643557640714" fill="none" stroke="#ccc"/><path d="M245,136.95519122982068C367.5,136.95519122982068,367.5,144.00494628956014,490,144.00494628956014" fill="none" stroke="#ccc"/><path d="M245,136.95519122982068C367.5,136.95519122982068,367.5,198.96493851536374,490,198.96493851536374" fill="none" stroke="#ccc"/><path d="M245,136.95519122982068C367.5,136.95519122982068,367.5,248.92856781154882,490,248.92856781154882" fill="none" stroke="#ccc"/><path d="M245,330.69650458350964C367.5,330.69650458350964,367.5,291.942446598428,490,291.942446598428" fill="none" stroke="#ccc"/><path d="M245,330.69650458350964C367.5,330.69650458350964,367.5,337.0327572263863,490,337.0327572263863" fill="none" stroke="#ccc"/><path d="M245,330.69650458350964C367.5,330.69650458350964,367.5,369.45056256859124,490,369.45056256859124" fill="none" stroke="#ccc"/><path d="M245,427.2517585236884C367.5,427.2517585236884,367.5,389.43601428706523,490,389.43601428706523" fill="none" stroke="#ccc"/><path d="M245,427.2517585236884C367.5,427.2517585236884,367.5,406.2396107401539,490,406.2396107401539" fill="none" stroke="#ccc"/><path d="M245,427.2517585236884C367.5,427.2517585236884,367.5,429.57961422045196,490,429.57961422045196" fill="none" stroke="#ccc"/><path d="M245,427.2517585236884C367.5,427.2517585236884,367.5,450.07841397145614,490,450.07841397145614" fill="none" stroke="#ccc"/><path d="M245,427.2517585236884C367.5,427.2517585236884,367.5,465.0675027603117,490,465.0675027603117" fill="none" stroke="#ccc"/><path d="M245,535.2098937362908C367.5,535.2098937362908,367.5,535.2098937362908,490,535.2098937362908" fill="none" stroke="#ccc"/><path d="M490,24.98181464809255C612.5,24.98181464809255,612.5,4.996362929618521,735,4.996362929618521" fill="none" stroke="#ccc"/><path d="M490,24.98181464809255C612.5,24.98181464809255,612.5,14.989088788855508,735,14.989088788855508" fill="none" stroke="#ccc"/><path d="M490,24.98181464809255C612.5,24.98181464809255,612.5,24.98181464809255,735,24.98181464809255" fill="none" stroke="#ccc"/><path d="M490,24.98181464809255C612.5,24.98181464809255,612.5,34.97454050732959,735,34.97454050732959" fill="none" stroke="#ccc"/><path d="M490,24.98181464809255C612.5,24.98181464809255,612.5,44.96726636656658,735,44.96726636656658" fill="none" stroke="#ccc"/><path d="M490,64.9527180850406C612.5,64.9527180850406,612.5,54.95999222580357,735,54.95999222580357" fill="none" stroke="#ccc"/><path d="M490,64.9527180850406C612.5,64.9527180850406,612.5,64.9527180850406,735,64.9527180850406" fill="none" stroke="#ccc"/><path d="M490,64.9527180850406C612.5,64.9527180850406,612.5,74.9454439442776,735,74.9454439442776" fill="none" stroke="#ccc"/><path d="M490,91.47457683072388C612.5,91.47457683072388,612.5,85.96486586857512,735,85.96486586857512" fill="none" stroke="#ccc"/><path d="M490,91.47457683072388C612.5,91.47457683072388,612.5,96.98428779287262,735,96.98428779287262" fill="none" stroke="#ccc"/><path d="M490,106.97701365210963C612.5,106.97701365210963,612.5,106.97701365210963,735,106.97701365210963" fill="none" stroke="#ccc"/><path d="M490,117.99643557640714C612.5,117.99643557640714,612.5,117.99643557640714,735,117.99643557640714" fill="none" stroke="#ccc"/><path d="M490,144.00494628956014C612.5,144.00494628956014,612.5,129.01585750070464,735,129.01585750070464" fill="none" stroke="#ccc"/><path d="M490,144.00494628956014C612.5,144.00494628956014,612.5,139.00858335994164,735,139.00858335994164" fill="none" stroke="#ccc"/><path d="M490,144.00494628956014C612.5,144.00494628956014,612.5,149.00130921917867,735,149.00130921917867" fill="none" stroke="#ccc"/><path d="M490,144.00494628956014C612.5,144.00494628956014,612.5,158.9940350784157,735,158.9940350784157" fill="none" stroke="#ccc"/><path d="M490,198.96493851536374C612.5,198.96493851536374,612.5,168.9867609376527,735,168.9867609376527" fill="none" stroke="#ccc"/><path d="M490,198.96493851536374C612.5,198.96493851536374,612.5,178.97948679688972,735,178.97948679688972" fill="none" stroke="#ccc"/><path d="M490,198.96493851536374C612.5,198.96493851536374,612.5,188.97221265612671,735,188.97221265612671" fill="none" stroke="#ccc"/><path d="M490,198.96493851536374C612.5,198.96493851536374,612.5,198.96493851536374,735,198.96493851536374" fill="none" stroke="#ccc"/><path d="M490,198.96493851536374C612.5,198.96493851536374,612.5,208.95766437460074,735,208.95766437460074" fill="none" stroke="#ccc"/><path d="M490,198.96493851536374C612.5,198.96493851536374,612.5,218.95039023383777,735,218.95039023383777" fill="none" stroke="#ccc"/><path d="M490,198.96493851536374C612.5,198.96493851536374,612.5,228.9431160930748,735,228.9431160930748" fill="none" stroke="#ccc"/><path d="M490,248.92856781154882C612.5,248.92856781154882,612.5,238.9358419523118,735,238.9358419523118" fill="none" stroke="#ccc"/><path d="M490,248.92856781154882C612.5,248.92856781154882,612.5,248.92856781154882,735,248.92856781154882" fill="none" stroke="#ccc"/><path d="M490,248.92856781154882C612.5,248.92856781154882,612.5,258.9212936707859,735,258.9212936707859" fill="none" stroke="#ccc"/><path d="M490,291.942446598428C612.5,291.942446598428,612.5,274.2735783830559,735,274.2735783830559" fill="none" stroke="#ccc"/><path d="M490,291.942446598428C612.5,291.942446598428,612.5,289.62586309532594,735,289.62586309532594" fill="none" stroke="#ccc"/><path d="M490,291.942446598428C612.5,291.942446598428,612.5,299.618588954563,735,299.618588954563" fill="none" stroke="#ccc"/><path d="M490,291.942446598428C612.5,291.942446598428,612.5,309.61131481379994,735,309.61131481379994" fill="none" stroke="#ccc"/><path d="M490,337.0327572263863C612.5,337.0327572263863,612.5,319.604040673037,735,319.604040673037" fill="none" stroke="#ccc"/><path d="M490,337.0327572263863C612.5,337.0327572263863,612.5,337.0327572263863,735,337.0327572263863" fill="none" stroke="#ccc"/><path d="M490,337.0327572263863C612.5,337.0327572263863,612.5,354.46147377973574,735,354.46147377973574" fill="none" stroke="#ccc"/><path d="M490,369.45056256859124C612.5,369.45056256859124,612.5,364.4541996389727,735,364.4541996389727" fill="none" stroke="#ccc"/><path d="M490,369.45056256859124C612.5,369.45056256859124,612.5,374.4469254982097,735,374.4469254982097" fill="none" stroke="#ccc"/><path d="M490,389.43601428706523C612.5,389.43601428706523,612.5,384.43965135744673,735,384.43965135744673" fill="none" stroke="#ccc"/><path d="M490,389.43601428706523C612.5,389.43601428706523,612.5,394.4323772166838,735,394.4323772166838" fill="none" stroke="#ccc"/><path d="M490,406.2396107401539C612.5,406.2396107401539,612.5,406.2396107401539,735,406.2396107401539" fill="none" stroke="#ccc"/><path d="M490,429.57961422045196C612.5,429.57961422045196,612.5,419.07354032868466,735,419.07354032868466" fill="none" stroke="#ccc"/><path d="M490,429.57961422045196C612.5,429.57961422045196,612.5,430.09296225298215,735,430.09296225298215" fill="none" stroke="#ccc"/><path d="M490,429.57961422045196C612.5,429.57961422045196,612.5,440.0856881122192,735,440.0856881122192" fill="none" stroke="#ccc"/><path d="M490,450.07841397145614C612.5,450.07841397145614,612.5,450.07841397145614,735,450.07841397145614" fill="none" stroke="#ccc"/><path d="M490,465.0675027603117C612.5,465.0675027603117,612.5,460.0711398306932,735,460.0711398306932" fill="none" stroke="#ccc"/><path d="M490,465.0675027603117C612.5,465.0675027603117,612.5,470.0638656899302,735,470.0638656899302" fill="none" stroke="#ccc"/><path d="M490,535.2098937362908C612.5,535.2098937362908,612.5,485.41615040220023,735,485.41615040220023" fill="none" stroke="#ccc"/><path d="M490,535.2098937362908C612.5,535.2098937362908,612.5,500.76843511447026,735,500.76843511447026" fill="none" stroke="#ccc"/><path d="M490,535.2098937362908C612.5,535.2098937362908,612.5,510.7611609737073,735,510.7611609737073" fill="none" stroke="#ccc"/><path d="M490,535.2098937362908C612.5,535.2098937362908,612.5,524.8331506442441,735,524.8331506442441" fill="none" stroke="#ccc"/><path d="M490,535.2098937362908C612.5,535.2098937362908,612.5,538.905140314781,735,538.905140314781" fill="none" stroke="#ccc"/><path d="M490,535.2098937362908C612.5,535.2098937362908,612.5,548.897866174018,735,548.897866174018" fill="none" stroke="#ccc"/><path d="M490,535.2098937362908C612.5,535.2098937362908,612.5,561.9543886925812,735,561.9543886925812" fill="none" stroke="#ccc"/><path d="M490,535.2098937362908C612.5,535.2098937362908,612.5,575.0109112111446,735,575.0109112111446" fill="none" stroke="#ccc"/><path d="M490,535.2098937362908C612.5,535.2098937362908,612.5,585.0036370703815,735,585.0036370703815" fill="none" stroke="#ccc"/></g><g id="nodes"><g transform="translate(0,336.08254248305576)"><circle fill="#b43e1f" r="5"/><text text-anchor="end" dominant-baseline="text-before-edge" transform="translate(0,0)"><tspan x="-8" y="0" dy="0" style="font-family: Arial, sans-serif; font-size: 10px; fill: black; font-weight: normal;"/></text></g><g id="Europa" transform="translate(245,136.95519122982068)"><circle fill="#b43e1f" r="5"/><text text-anchor="end" dominant-baseline="text-before-edge" transform="translate(0,-5.5)"><tspan x="-8" y="0" dy="0" style="font-family: Arial, sans-serif; font-size: 10px; fill: black; font-weight: normal;">Europa</tspan></text></g><g id="América del Sur" transform="translate(245,330.69650458350964)"><circle fill="#b43e1f" r="5"/><text text-anchor="end" dominant-baseline="text-before-edge" transform="translate(0,-5.5)"><tspan x="-8" y="0" dy="0" style="font-family: Arial, sans-serif; font-size: 10px; fill: black; font-weight: normal;">América del Sur</tspan></text></g><g id="Centroamérica" transform="translate(245,427.2517585236884)"><circle fill="#b43e1f" r="5"/><text text-anchor="end" dominant-baseline="text-before-edge" transform="translate(0,-5.5)"><tspan x="-8" y="0" dy="0" style="font-family: Arial, sans-serif; font-size: 10px; fill: black; font-weight: normal;">Centroamérica</tspan></text></g><g id="América del Norte" transform="translate(245,535.2098937362908)"><circle fill="#b43e1f" r="5"/><text text-anchor="end" dominant-baseline="text-before-edge" transform="translate(0,-5.5)"><tspan x="-8" y="0" dy="0" style="font-family: Arial, sans-serif; font-size: 10px; fill: black; font-weight: normal;">América del Norte</tspan></text></g><g id="Noruega" transform="translate(490,24.98181464809255)"><circle fill="#b43e1f" r="5"/><text text-anchor="end" dominant-baseline="text-before-edge" transform="translate(0,-5.55224609375)"><tspan x="-8" y="0" dy="0" style="font-family: Arial, sans-serif; font-size: 10px; fill: black; font-weight: normal;">Noruega</tspan></text></g><g id="Finlandia" transform="translate(490,64.9527180850406)"><circle fill="#b43e1f" r="5"/><text text-anchor="end" dominant-baseline="text-before-edge" transform="translate(0,-5.5)"><tspan x="-8" y="0" dy="0" style="font-family: Arial, sans-serif; font-size: 10px; fill: black; font-weight: normal;">Finlandia</tspan></text></g><g id="Reino Unido" transform="translate(490,91.47457683072388)"><circle fill="#b43e1f" r="5"/><text text-anchor="end" dominant-baseline="text-before-edge" transform="translate(0,-5.5)"><tspan x="-8" y="0" dy="0" style="font-family: Arial, sans-serif; font-size: 10px; fill: black; font-weight: normal;">Reino Unido</tspan></text></g><g id="Países bajos" transform="translate(490,106.97701365210963)"><circle fill="#b43e1f" r="5"/><text text-anchor="end" dominant-baseline="text-before-edge" transform="translate(0,-5.55224609375)"><tspan x="-8" y="0" dy="0" style="font-family: Arial, sans-serif; font-size: 10px; fill: black; font-weight: normal;">Países bajos</tspan></text></g><g id="Francia" transform="translate(490,117.99643557640714)"><circle fill="#b43e1f" r="5"/><text text-anchor="end" dominant-baseline="text-before-edge" transform="translate(0,-5.5)"><tspan x="-8" y="0" dy="0" style="font-family: Arial, sans-serif; font-size: 10px; fill: black; font-weight: normal;">Francia</tspan></text></g><g id="Alemania" transform="translate(490,144.00494628956014)"><circle fill="#b43e1f" r="5"/><text text-anchor="end" dominant-baseline="text-before-edge" transform="translate(0,-5.5)"><tspan x="-8" y="0" dy="0" style="font-family: Arial, sans-serif; font-size: 10px; fill: black; font-weight: normal;">Alemania</tspan></text></g><g id="Italia" transform="translate(490,198.96493851536374)"><circle fill="#b43e1f" r="5"/><text text-anchor="end" dominant-baseline="text-before-edge" transform="translate(0,-5.5)"><tspan x="-8" y="0" dy="0" style="font-family: Arial, sans-serif; font-size: 10px; fill: black; font-weight: normal;">Italia</tspan></text></g><g id="España" transform="translate(490,248.92856781154882)"><circle fill="#b43e1f" r="5"/><text text-anchor="end" dominant-baseline="text-before-edge" transform="translate(0,-5.5)"><tspan x="-8" y="0" dy="0" style="font-family: Arial, sans-serif; font-size: 10px; fill: black; font-weight: normal;">España</tspan></text></g><g id="Argentina" transform="translate(490,291.942446598428)"><circle fill="#b43e1f" r="5"/><text text-anchor="end" dominant-baseline="text-before-edge" transform="translate(0,-5.55224609375)"><tspan x="-8" y="0" dy="0" style="font-family: Arial, sans-serif; font-size: 10px; fill: black; font-weight: normal;">Argentina</tspan></text></g><g id="Uruguay" transform="translate(490,337.0327572263863)"><circle fill="#b43e1f" r="5"/><text text-anchor="end" dominant-baseline="text-before-edge" transform="translate(0,-5.55224609375)"><tspan x="-8" y="0" dy="0" style="font-family: Arial, sans-serif; font-size: 10px; fill: black; font-weight: normal;">Uruguay</tspan></text></g><g id="Brasil" transform="translate(490,369.45056256859124)"><circle fill="#b43e1f" r="5"/><text text-anchor="end" dominant-baseline="text-before-edge" transform="translate(0,-5.5)"><tspan x="-8" y="0" dy="0" style="font-family: Arial, sans-serif; font-size: 10px; fill: black; font-weight: normal;">Brasil</tspan></text></g><g id="Cuba" transform="translate(490,389.43601428706523)"><circle fill="#b43e1f" r="5"/><text text-anchor="end" dominant-baseline="text-before-edge" transform="translate(0,-5.5)"><tspan x="-8" y="0" dy="0" style="font-family: Arial, sans-serif; font-size: 10px; fill: black; font-weight: normal;">Cuba</tspan></text></g><g id="República Dominicana" transform="translate(490,406.2396107401539)"><circle fill="#b43e1f" r="5"/><text text-anchor="end" dominant-baseline="text-before-edge" transform="translate(0,-5.5)"><tspan x="-8" y="0" dy="0" style="font-family: Arial, sans-serif; font-size: 10px; fill: black; font-weight: normal;">República Dominicana</tspan></text></g><g id="México" transform="translate(490,429.57961422045196)"><circle fill="#b43e1f" r="5"/><text text-anchor="end" dominant-baseline="text-before-edge" transform="translate(0,-5.5)"><tspan x="-8" y="0" dy="0" style="font-family: Arial, sans-serif; font-size: 10px; fill: black; font-weight: normal;">México</tspan></text></g><g id="Islas Turcas y Caicos" transform="translate(490,450.07841397145614)"><circle fill="#b43e1f" r="5"/><text text-anchor="end" dominant-baseline="text-before-edge" transform="translate(0,-5.55224609375)"><tspan x="-8" y="0" dy="0" style="font-family: Arial, sans-serif; font-size: 10px; fill: black; font-weight: normal;">Islas Turcas y Caicos</tspan></text></g><g id="Bahamas" transform="translate(490,465.0675027603117)"><circle fill="#b43e1f" r="5"/><text text-anchor="end" dominant-baseline="text-before-edge" transform="translate(0,-5.5)"><tspan x="-8" y="0" dy="0" style="font-family: Arial, sans-serif; font-size: 10px; fill: black; font-weight: normal;">Bahamas</tspan></text></g><g id="Estados Unidos" transform="translate(490,535.2098937362908)"><circle fill="#b43e1f" r="5"/><text text-anchor="end" dominant-baseline="text-before-edge" transform="translate(0,-5.5)"><tspan x="-8" y="0" dy="0" style="font-family: Arial, sans-serif; font-size: 10px; fill: black; font-weight: normal;">Estados Unidos</tspan></text></g><g id="Oslo" transform="translate(735,4.996362929618521)"><circle fill="#b43e1f" r="2.5"/><text text-anchor="start" dominant-baseline="text-before-edge" transform="translate(0,0)"/></g><g id="Trondheim" transform="translate(735,14.989088788855508)"><circle fill="#b43e1f" r="2.5"/><text text-anchor="start" dominant-baseline="text-before-edge" transform="translate(0,0)"/></g><g id="Svolvaer" transform="translate(735,24.98181464809255)"><circle fill="#b43e1f" r="2.5"/><text text-anchor="start" dominant-baseline="text-before-edge" transform="translate(0,0)"/></g><g id="Tromso" transform="translate(735,34.97454050732959)"><circle fill="#b43e1f" r="2.5"/><text text-anchor="start" dominant-baseline="text-before-edge" transform="translate(0,0)"/></g><g id="Lofoten" transform="translate(735,44.96726636656658)"><circle fill="#b43e1f" r="2.5"/><text text-anchor="start" dominant-baseline="text-before-edge" transform="translate(0,0)"/></g><g id="Saariselka" transform="translate(735,54.95999222580357)"><circle fill="#b43e1f" r="2.5"/><text text-anchor="start" dominant-baseline="text-before-edge" transform="translate(0,0)"/></g><g id="Helsinki" transform="translate(735,64.9527180850406)"><circle fill="#b43e1f" r="2.5"/><text text-anchor="start" dominant-baseline="text-before-edge" transform="translate(0,0)"/></g><g id="Rovaniemi" transform="translate(735,74.9454439442776)"><circle fill="#b43e1f" r="2.5"/><text text-anchor="start" dominant-baseline="text-before-edge" transform="translate(0,0)"/></g><g id="Londres" transform="translate(735,85.96486586857512)"><circle fill="#b43e1f" r="3.5355339059327378"/><text text-anchor="start" dominant-baseline="text-before-edge" transform="translate(0,0)"/></g><g id="Liverpool" transform="translate(735,96.98428779287262)"><circle fill="#b43e1f" r="2.5"/><text text-anchor="start" dominant-baseline="text-before-edge" transform="translate(0,0)"/></g><g id="Ámsterdam" transform="translate(735,106.97701365210963)"><circle fill="#b43e1f" r="2.5"/><text text-anchor="start" dominant-baseline="text-before-edge" transform="translate(0,0)"/></g><g id="Paris" transform="translate(735,117.99643557640714)"><circle fill="#b43e1f" r="3.5355339059327378"/><text text-anchor="start" dominant-baseline="text-before-edge" transform="translate(0,0)"/></g><g id="Berlín" transform="translate(735,129.01585750070464)"><circle fill="#b43e1f" r="2.5"/><text text-anchor="start" dominant-baseline="text-before-edge" transform="translate(0,0)"/></g><g id="Nuremberg" transform="translate(735,139.00858335994164)"><circle fill="#b43e1f" r="2.5"/><text text-anchor="start" dominant-baseline="text-before-edge" transform="translate(0,0)"/></g><g id="Rotenburg" transform="translate(735,149.00130921917867)"><circle fill="#b43e1f" r="2.5"/><text text-anchor="start" dominant-baseline="text-before-edge" transform="translate(0,0)"/></g><g id="Munich" transform="translate(735,158.9940350784157)"><circle fill="#b43e1f" r="2.5"/><text text-anchor="start" dominant-baseline="text-before-edge" transform="translate(0,0)"/></g><g id="Milán" transform="translate(735,168.9867609376527)"><circle fill="#b43e1f" r="2.5"/><text text-anchor="start" dominant-baseline="text-before-edge" transform="translate(0,0)"/></g><g id="Roma" transform="translate(735,178.97948679688972)"><circle fill="#b43e1f" r="2.5"/><text text-anchor="start" dominant-baseline="text-before-edge" transform="translate(0,0)"/></g><g id="Venecia" transform="translate(735,188.97221265612671)"><circle fill="#b43e1f" r="2.5"/><text text-anchor="start" dominant-baseline="text-before-edge" transform="translate(0,0)"/></g><g id="Florencia" transform="translate(735,198.96493851536374)"><circle fill="#b43e1f" r="2.5"/><text text-anchor="start" dominant-baseline="text-before-edge" transform="translate(0,0)"/></g><g id="Siena" transform="translate(735,208.95766437460074)"><circle fill="#b43e1f" r="2.5"/><text text-anchor="start" dominant-baseline="text-before-edge" transform="translate(0,0)"/></g><g id="Pisa" transform="translate(735,218.95039023383777)"><circle fill="#b43e1f" r="2.5"/><text text-anchor="start" dominant-baseline="text-before-edge" transform="translate(0,0)"/></g><g id="Cortina d'Ampezzo" transform="translate(735,228.9431160930748)"><circle fill="#b43e1f" r="2.5"/><text text-anchor="start" dominant-baseline="text-before-edge" transform="translate(0,0)"/></g><g id="Madrid" transform="translate(735,238.9358419523118)"><circle fill="#b43e1f" r="2.5"/><text text-anchor="start" dominant-baseline="text-before-edge" transform="translate(0,0)"/></g><g id="Barcelona" transform="translate(735,248.92856781154882)"><circle fill="#b43e1f" r="2.5"/><text text-anchor="start" dominant-baseline="text-before-edge" transform="translate(0,0)"/></g><g id="Baqueira" transform="translate(735,258.9212936707859)"><circle fill="#b43e1f" r="2.5"/><text text-anchor="start" dominant-baseline="text-before-edge" transform="translate(0,0)"/></g><g id="Tierra del Fuego" transform="translate(735,274.2735783830559)"><circle fill="#b43e1f" r="7.905694150420949"/><text text-anchor="start" dominant-baseline="text-before-edge" transform="translate(0,0)"/></g><g id="Córdoba" transform="translate(735,289.62586309532594)"><circle fill="#b43e1f" r="2.5"/><text text-anchor="start" dominant-baseline="text-before-edge" transform="translate(0,0)"/></g><g id="Santa Cruz" transform="translate(735,299.618588954563)"><circle fill="#b43e1f" r="2.5"/><text text-anchor="start" dominant-baseline="text-before-edge" transform="translate(0,0)"/></g><g id="Entre Ríos" transform="translate(735,309.61131481379994)"><circle fill="#b43e1f" r="2.5"/><text text-anchor="start" dominant-baseline="text-before-edge" transform="translate(0,0)"/></g><g id="Montevideo" transform="translate(735,319.604040673037)"><circle fill="#b43e1f" r="2.5"/><text text-anchor="start" dominant-baseline="text-before-edge" transform="translate(0,0)"/></g><g id="Punta del Este" transform="translate(735,337.0327572263863)"><circle fill="#b43e1f" r="10"/><text text-anchor="start" dominant-baseline="text-before-edge" transform="translate(0,0)"/></g><g id="Piriápolis" transform="translate(735,354.46147377973574)"><circle fill="#b43e1f" r="2.5"/><text text-anchor="start" dominant-baseline="text-before-edge" transform="translate(0,0)"/></g><g id="Buzios" transform="translate(735,364.4541996389727)"><circle fill="#b43e1f" r="2.5"/><text text-anchor="start" dominant-baseline="text-before-edge" transform="translate(0,0)"/></g><g id="Río de Janeiro" transform="translate(735,374.4469254982097)"><circle fill="#b43e1f" r="2.5"/><text text-anchor="start" dominant-baseline="text-before-edge" transform="translate(0,0)"/></g><g id="Varadero" transform="translate(735,384.43965135744673)"><circle fill="#b43e1f" r="2.5"/><text text-anchor="start" dominant-baseline="text-before-edge" transform="translate(0,0)"/></g><g id="Cayo Guillermo" transform="translate(735,394.4323772166838)"><circle fill="#b43e1f" r="2.5"/><text text-anchor="start" dominant-baseline="text-before-edge" transform="translate(0,0)"/></g><g id="Punta Cana" transform="translate(735,406.2396107401539)"><circle fill="#b43e1f" r="4.330127018922193"/><text text-anchor="start" dominant-baseline="text-before-edge" transform="translate(0,0)"/></g><g id="Cancún" transform="translate(735,419.07354032868466)"><circle fill="#b43e1f" r="3.5355339059327378"/><text text-anchor="start" dominant-baseline="text-before-edge" transform="translate(0,0)"/></g><g id="Playa del Carmen" transform="translate(735,430.09296225298215)"><circle fill="#b43e1f" r="2.5"/><text text-anchor="start" dominant-baseline="text-before-edge" transform="translate(0,0)"/></g><g id="Tulum" transform="translate(735,440.0856881122192)"><circle fill="#b43e1f" r="2.5"/><text text-anchor="start" dominant-baseline="text-before-edge" transform="translate(0,0)"/></g><g id="Grace Bay " transform="translate(735,450.07841397145614)"><circle fill="#b43e1f" r="2.5"/><text text-anchor="start" dominant-baseline="text-before-edge" transform="translate(0,0)"/></g><g id="Nasáu" transform="translate(735,460.0711398306932)"><circle fill="#b43e1f" r="2.5"/><text text-anchor="start" dominant-baseline="text-before-edge" transform="translate(0,0)"/></g><g id="Coco Bay" transform="translate(735,470.0638656899302)"><circle fill="#b43e1f" r="2.5"/><text text-anchor="start" dominant-baseline="text-before-edge" transform="translate(0,0)"/></g><g id="Miami" transform="translate(735,485.41615040220023)"><circle fill="#b43e1f" r="7.905694150420949"/><text text-anchor="start" dominant-baseline="text-before-edge" transform="translate(0,0)"/></g><g id="Las Vegas" transform="translate(735,500.76843511447026)"><circle fill="#b43e1f" r="2.5"/><text text-anchor="start" dominant-baseline="text-before-edge" transform="translate(0,0)"/></g><g id="Washington DC" transform="translate(735,510.7611609737073)"><circle fill="#b43e1f" r="2.5"/><text text-anchor="start" dominant-baseline="text-before-edge" transform="translate(0,0)"/></g><g id="Orlando" transform="translate(735,524.8331506442441)"><circle fill="#b43e1f" r="6.614378277661476"/><text text-anchor="start" dominant-baseline="text-before-edge" transform="translate(0,0)"/></g><g id="San Francisco" transform="translate(735,538.905140314781)"><circle fill="#b43e1f" r="2.5"/><text text-anchor="start" dominant-baseline="text-before-edge" transform="translate(0,0)"/></g><g id="Los Ángeles" transform="translate(735,548.897866174018)"><circle fill="#b43e1f" r="2.5"/><text text-anchor="start" dominant-baseline="text-before-edge" transform="translate(0,0)"/></g><g id="Nueva York" transform="translate(735,561.9543886925812)"><circle fill="#b43e1f" r="5.5901699437494745"/><text text-anchor="start" dominant-baseline="text-before-edge" transform="translate(0,0)"/></g><g id="Boston" transform="translate(735,575.0109112111446)"><circle fill="#b43e1f" r="2.5"/><text text-anchor="start" dominant-baseline="text-before-edge" transform="translate(0,0)"/></g><g id="Naples" transform="translate(735,585.0036370703815)"><circle fill="#b43e1f" r="2.5"/><text text-anchor="start" dominant-baseline="text-before-edge" transform="translate(0,0)"/></g></g></g></svg>